<mxfile host="app.diagrams.net" modified="2023-05-11T05:44:40.075Z" agent="Mozilla/5.0 (Windows NT 10.0; Win64; x64) AppleWebKit/537.36 (KHTML, like Gecko) Chrome/113.0.0.0 Safari/537.36 Edg/113.0.1774.35" etag="BKv0RTdUN-CklugLATXt" version="21.2.9" type="github" pages="7">
  <diagram name="Page-1" id="19d8dcba-68ad-dc05-1034-9cf7b2a963f6">
    <mxGraphModel dx="2247" dy="1056" grid="1" gridSize="10" guides="1" tooltips="1" connect="1" arrows="1" fold="1" page="1" pageScale="1" pageWidth="1100" pageHeight="850" background="none" math="0" shadow="0">
      <root>
        <mxCell id="0" />
        <mxCell id="1" parent="0" />
        <mxCell id="6257edae8c83ed4a-1" value="&lt;font style=&quot;font-size: 22px;&quot;&gt;&lt;br&gt;&lt;span&gt;大学英语词汇学习平台&lt;/span&gt;&lt;br&gt;&lt;br&gt;&lt;/font&gt;" style="whiteSpace=wrap;html=1;rounded=1;shadow=0;comic=0;strokeWidth=2;fontFamily=Verdana;align=center;fontSize=12;fontStyle=0" parent="1" vertex="1">
          <mxGeometry x="830" y="170" width="260" height="30" as="geometry" />
        </mxCell>
        <mxCell id="Dn-dgKpDhfG5w00fbfHs-3" value="" style="endArrow=none;html=1;rounded=0;fontSize=16;" parent="1" edge="1">
          <mxGeometry width="50" height="50" relative="1" as="geometry">
            <mxPoint x="960" y="280" as="sourcePoint" />
            <mxPoint x="960" y="200" as="targetPoint" />
          </mxGeometry>
        </mxCell>
        <mxCell id="Dn-dgKpDhfG5w00fbfHs-4" value="" style="endArrow=none;html=1;rounded=0;fontSize=16;" parent="1" edge="1">
          <mxGeometry width="50" height="50" relative="1" as="geometry">
            <mxPoint x="560" y="240" as="sourcePoint" />
            <mxPoint x="1360" y="240" as="targetPoint" />
            <Array as="points">
              <mxPoint x="960" y="240" />
            </Array>
          </mxGeometry>
        </mxCell>
        <mxCell id="Dn-dgKpDhfG5w00fbfHs-5" value="" style="endArrow=none;html=1;rounded=0;fontSize=16;" parent="1" edge="1">
          <mxGeometry width="50" height="50" relative="1" as="geometry">
            <mxPoint x="560" y="280" as="sourcePoint" />
            <mxPoint x="560" y="240" as="targetPoint" />
          </mxGeometry>
        </mxCell>
        <mxCell id="Dn-dgKpDhfG5w00fbfHs-6" value="" style="endArrow=none;html=1;rounded=0;fontSize=16;" parent="1" edge="1">
          <mxGeometry width="50" height="50" relative="1" as="geometry">
            <mxPoint x="560" y="280" as="sourcePoint" />
            <mxPoint x="560" y="240" as="targetPoint" />
          </mxGeometry>
        </mxCell>
        <mxCell id="Dn-dgKpDhfG5w00fbfHs-7" value="" style="endArrow=none;html=1;rounded=0;fontSize=16;" parent="1" edge="1">
          <mxGeometry width="50" height="50" relative="1" as="geometry">
            <mxPoint x="760" y="280" as="sourcePoint" />
            <mxPoint x="760" y="240" as="targetPoint" />
          </mxGeometry>
        </mxCell>
        <mxCell id="Dn-dgKpDhfG5w00fbfHs-8" value="" style="endArrow=none;html=1;rounded=0;fontSize=16;" parent="1" edge="1">
          <mxGeometry width="50" height="50" relative="1" as="geometry">
            <mxPoint x="1160" y="280" as="sourcePoint" />
            <mxPoint x="1160" y="240" as="targetPoint" />
            <Array as="points">
              <mxPoint x="1160" y="260" />
            </Array>
          </mxGeometry>
        </mxCell>
        <mxCell id="Dn-dgKpDhfG5w00fbfHs-9" value="" style="endArrow=none;html=1;rounded=0;fontSize=16;" parent="1" edge="1">
          <mxGeometry width="50" height="50" relative="1" as="geometry">
            <mxPoint x="1360" y="280" as="sourcePoint" />
            <mxPoint x="1360" y="240" as="targetPoint" />
          </mxGeometry>
        </mxCell>
        <mxCell id="Dn-dgKpDhfG5w00fbfHs-10" value="&lt;font style=&quot;font-size: 20px;&quot;&gt;注册登录&lt;/font&gt;" style="rounded=0;whiteSpace=wrap;html=1;fontSize=16;" parent="1" vertex="1">
          <mxGeometry x="500" y="280" width="130" height="30" as="geometry" />
        </mxCell>
        <mxCell id="Dn-dgKpDhfG5w00fbfHs-15" value="" style="endArrow=none;html=1;rounded=0;fontSize=22;" parent="1" edge="1">
          <mxGeometry width="50" height="50" relative="1" as="geometry">
            <mxPoint x="560" y="360" as="sourcePoint" />
            <mxPoint x="560" y="310" as="targetPoint" />
          </mxGeometry>
        </mxCell>
        <mxCell id="Dn-dgKpDhfG5w00fbfHs-16" value="" style="endArrow=none;html=1;rounded=0;fontSize=22;" parent="1" edge="1">
          <mxGeometry width="50" height="50" relative="1" as="geometry">
            <mxPoint x="500" y="360" as="sourcePoint" />
            <mxPoint x="630" y="360" as="targetPoint" />
          </mxGeometry>
        </mxCell>
        <mxCell id="Dn-dgKpDhfG5w00fbfHs-17" value="" style="endArrow=none;html=1;rounded=0;fontSize=22;" parent="1" edge="1">
          <mxGeometry width="50" height="50" relative="1" as="geometry">
            <mxPoint x="500" y="400" as="sourcePoint" />
            <mxPoint x="500" y="360" as="targetPoint" />
          </mxGeometry>
        </mxCell>
        <mxCell id="Dn-dgKpDhfG5w00fbfHs-18" value="" style="endArrow=none;html=1;rounded=0;fontSize=22;" parent="1" edge="1">
          <mxGeometry width="50" height="50" relative="1" as="geometry">
            <mxPoint x="630" y="400" as="sourcePoint" />
            <mxPoint x="630" y="360" as="targetPoint" />
          </mxGeometry>
        </mxCell>
        <mxCell id="Dn-dgKpDhfG5w00fbfHs-24" value="&lt;font style=&quot;font-size: 22px;&quot;&gt;用户注册&lt;/font&gt;" style="rounded=0;whiteSpace=wrap;html=1;fontSize=22;horizontal=0;verticalAlign=middle;rotation=90;" parent="1" vertex="1">
          <mxGeometry x="404.07" y="480" width="195.93" height="35.62" as="geometry" />
        </mxCell>
        <mxCell id="Dn-dgKpDhfG5w00fbfHs-26" value="&lt;font style=&quot;font-size: 20px;&quot;&gt;查询单词&lt;/font&gt;" style="rounded=0;whiteSpace=wrap;html=1;fontSize=16;" parent="1" vertex="1">
          <mxGeometry x="700" y="280" width="130" height="30" as="geometry" />
        </mxCell>
        <mxCell id="Dn-dgKpDhfG5w00fbfHs-27" value="" style="endArrow=none;html=1;rounded=0;fontSize=22;" parent="1" edge="1">
          <mxGeometry width="50" height="50" relative="1" as="geometry">
            <mxPoint x="760" y="360" as="sourcePoint" />
            <mxPoint x="760" y="310" as="targetPoint" />
          </mxGeometry>
        </mxCell>
        <mxCell id="Dn-dgKpDhfG5w00fbfHs-34" value="&lt;font style=&quot;font-size: 20px;&quot;&gt;记忆单词&lt;/font&gt;" style="rounded=0;whiteSpace=wrap;html=1;fontSize=16;" parent="1" vertex="1">
          <mxGeometry x="900" y="280" width="130" height="30" as="geometry" />
        </mxCell>
        <mxCell id="Dn-dgKpDhfG5w00fbfHs-35" value="" style="endArrow=none;html=1;rounded=0;fontSize=22;" parent="1" edge="1">
          <mxGeometry width="50" height="50" relative="1" as="geometry">
            <mxPoint x="960" y="360" as="sourcePoint" />
            <mxPoint x="960" y="310" as="targetPoint" />
          </mxGeometry>
        </mxCell>
        <mxCell id="Dn-dgKpDhfG5w00fbfHs-42" value="&lt;font style=&quot;font-size: 20px;&quot;&gt;复习单词&lt;/font&gt;" style="rounded=0;whiteSpace=wrap;html=1;fontSize=16;" parent="1" vertex="1">
          <mxGeometry x="1100" y="280" width="130" height="30" as="geometry" />
        </mxCell>
        <mxCell id="Dn-dgKpDhfG5w00fbfHs-43" value="" style="endArrow=none;html=1;rounded=0;fontSize=22;" parent="1" edge="1">
          <mxGeometry width="50" height="50" relative="1" as="geometry">
            <mxPoint x="1160" y="360" as="sourcePoint" />
            <mxPoint x="1160" y="310" as="targetPoint" />
          </mxGeometry>
        </mxCell>
        <mxCell id="Dn-dgKpDhfG5w00fbfHs-50" value="&lt;font style=&quot;font-size: 20px;&quot;&gt;系统设置&lt;/font&gt;" style="rounded=0;whiteSpace=wrap;html=1;fontSize=16;" parent="1" vertex="1">
          <mxGeometry x="1300" y="280" width="130" height="30" as="geometry" />
        </mxCell>
        <mxCell id="Dn-dgKpDhfG5w00fbfHs-51" value="" style="endArrow=none;html=1;rounded=0;fontSize=22;" parent="1" edge="1">
          <mxGeometry width="50" height="50" relative="1" as="geometry">
            <mxPoint x="1360" y="360" as="sourcePoint" />
            <mxPoint x="1360" y="310" as="targetPoint" />
          </mxGeometry>
        </mxCell>
        <mxCell id="Dn-dgKpDhfG5w00fbfHs-68" value="&lt;font style=&quot;font-size: 22px;&quot;&gt;用户登录&lt;/font&gt;" style="rounded=0;whiteSpace=wrap;html=1;fontSize=22;horizontal=0;verticalAlign=middle;rotation=90;" parent="1" vertex="1">
          <mxGeometry x="529.995" y="480.005" width="195.93" height="35.62" as="geometry" />
        </mxCell>
        <mxCell id="Dn-dgKpDhfG5w00fbfHs-77" value="" style="endArrow=none;html=1;rounded=0;fontSize=22;" parent="1" edge="1">
          <mxGeometry width="50" height="50" relative="1" as="geometry">
            <mxPoint x="695.9250000000001" y="360.005" as="sourcePoint" />
            <mxPoint x="825.9250000000001" y="360.005" as="targetPoint" />
          </mxGeometry>
        </mxCell>
        <mxCell id="Dn-dgKpDhfG5w00fbfHs-78" value="" style="endArrow=none;html=1;rounded=0;fontSize=22;" parent="1" edge="1">
          <mxGeometry width="50" height="50" relative="1" as="geometry">
            <mxPoint x="695.9250000000001" y="400.005" as="sourcePoint" />
            <mxPoint x="695.9250000000001" y="360.005" as="targetPoint" />
          </mxGeometry>
        </mxCell>
        <mxCell id="Dn-dgKpDhfG5w00fbfHs-79" value="" style="endArrow=none;html=1;rounded=0;fontSize=22;" parent="1" edge="1">
          <mxGeometry width="50" height="50" relative="1" as="geometry">
            <mxPoint x="825.9250000000001" y="400.005" as="sourcePoint" />
            <mxPoint x="825.9250000000001" y="360.005" as="targetPoint" />
          </mxGeometry>
        </mxCell>
        <mxCell id="Dn-dgKpDhfG5w00fbfHs-80" value="&lt;font style=&quot;font-size: 22px;&quot;&gt;单词查询&lt;br&gt;&lt;/font&gt;" style="rounded=0;whiteSpace=wrap;html=1;fontSize=22;horizontal=0;verticalAlign=middle;rotation=90;" parent="1" vertex="1">
          <mxGeometry x="599.995" y="480.005" width="195.93" height="35.62" as="geometry" />
        </mxCell>
        <mxCell id="Dn-dgKpDhfG5w00fbfHs-81" value="&lt;font style=&quot;font-size: 22px;&quot;&gt;加入复习计划&lt;/font&gt;" style="rounded=0;whiteSpace=wrap;html=1;fontSize=22;horizontal=0;verticalAlign=middle;rotation=90;" parent="1" vertex="1">
          <mxGeometry x="725.92" y="480.01" width="195.93" height="35.62" as="geometry" />
        </mxCell>
        <mxCell id="Dn-dgKpDhfG5w00fbfHs-82" value="" style="endArrow=none;html=1;rounded=0;fontSize=22;" parent="1" edge="1">
          <mxGeometry width="50" height="50" relative="1" as="geometry">
            <mxPoint x="891.8550000000001" y="359.99499999999995" as="sourcePoint" />
            <mxPoint x="1021.8550000000001" y="359.99499999999995" as="targetPoint" />
          </mxGeometry>
        </mxCell>
        <mxCell id="Dn-dgKpDhfG5w00fbfHs-83" value="" style="endArrow=none;html=1;rounded=0;fontSize=22;" parent="1" edge="1">
          <mxGeometry width="50" height="50" relative="1" as="geometry">
            <mxPoint x="891.8550000000001" y="399.99499999999995" as="sourcePoint" />
            <mxPoint x="891.8550000000001" y="359.99499999999995" as="targetPoint" />
          </mxGeometry>
        </mxCell>
        <mxCell id="Dn-dgKpDhfG5w00fbfHs-84" value="" style="endArrow=none;html=1;rounded=0;fontSize=22;" parent="1" edge="1">
          <mxGeometry width="50" height="50" relative="1" as="geometry">
            <mxPoint x="1021.8550000000001" y="399.99499999999995" as="sourcePoint" />
            <mxPoint x="1021.8550000000001" y="359.99499999999995" as="targetPoint" />
          </mxGeometry>
        </mxCell>
        <mxCell id="Dn-dgKpDhfG5w00fbfHs-85" value="&lt;font style=&quot;font-size: 22px;&quot;&gt;单词浏览&lt;/font&gt;" style="rounded=0;whiteSpace=wrap;html=1;fontSize=22;horizontal=0;verticalAlign=middle;rotation=90;" parent="1" vertex="1">
          <mxGeometry x="795.9250000000001" y="479.99499999999995" width="195.93" height="35.62" as="geometry" />
        </mxCell>
        <mxCell id="Dn-dgKpDhfG5w00fbfHs-86" value="&lt;font style=&quot;font-size: 22px;&quot;&gt;加入复习计划&lt;/font&gt;" style="rounded=0;whiteSpace=wrap;html=1;fontSize=22;horizontal=0;verticalAlign=middle;rotation=90;" parent="1" vertex="1">
          <mxGeometry x="921.85" y="479.99999999999994" width="195.93" height="35.62" as="geometry" />
        </mxCell>
        <mxCell id="Dn-dgKpDhfG5w00fbfHs-87" value="" style="endArrow=none;html=1;rounded=0;fontSize=22;" parent="1" edge="1">
          <mxGeometry width="50" height="50" relative="1" as="geometry">
            <mxPoint x="1100.005" y="360.00500000000005" as="sourcePoint" />
            <mxPoint x="1230.005" y="360.00500000000005" as="targetPoint" />
          </mxGeometry>
        </mxCell>
        <mxCell id="Dn-dgKpDhfG5w00fbfHs-88" value="" style="endArrow=none;html=1;rounded=0;fontSize=22;" parent="1" edge="1">
          <mxGeometry width="50" height="50" relative="1" as="geometry">
            <mxPoint x="1100.005" y="400.00500000000005" as="sourcePoint" />
            <mxPoint x="1100.005" y="360.00500000000005" as="targetPoint" />
          </mxGeometry>
        </mxCell>
        <mxCell id="Dn-dgKpDhfG5w00fbfHs-89" value="" style="endArrow=none;html=1;rounded=0;fontSize=22;" parent="1" edge="1">
          <mxGeometry width="50" height="50" relative="1" as="geometry">
            <mxPoint x="1230.005" y="400.00500000000005" as="sourcePoint" />
            <mxPoint x="1230.005" y="360.00500000000005" as="targetPoint" />
          </mxGeometry>
        </mxCell>
        <mxCell id="Dn-dgKpDhfG5w00fbfHs-90" value="&lt;font style=&quot;font-size: 22px;&quot;&gt;单词浏览&lt;/font&gt;" style="rounded=0;whiteSpace=wrap;html=1;fontSize=22;horizontal=0;verticalAlign=middle;rotation=90;" parent="1" vertex="1">
          <mxGeometry x="1004.075" y="480.00500000000005" width="195.93" height="35.62" as="geometry" />
        </mxCell>
        <mxCell id="Dn-dgKpDhfG5w00fbfHs-91" value="删除单词" style="rounded=0;whiteSpace=wrap;html=1;fontSize=22;horizontal=0;verticalAlign=middle;rotation=90;" parent="1" vertex="1">
          <mxGeometry x="1130" y="480.01000000000005" width="195.93" height="35.62" as="geometry" />
        </mxCell>
        <mxCell id="Dn-dgKpDhfG5w00fbfHs-92" value="" style="endArrow=none;html=1;rounded=0;fontSize=22;" parent="1" edge="1">
          <mxGeometry width="50" height="50" relative="1" as="geometry">
            <mxPoint x="1295.9350000000002" y="360.00500000000005" as="sourcePoint" />
            <mxPoint x="1425.9350000000002" y="360.00500000000005" as="targetPoint" />
          </mxGeometry>
        </mxCell>
        <mxCell id="Dn-dgKpDhfG5w00fbfHs-93" value="" style="endArrow=none;html=1;rounded=0;fontSize=22;" parent="1" edge="1">
          <mxGeometry width="50" height="50" relative="1" as="geometry">
            <mxPoint x="1295.9350000000002" y="400.00500000000005" as="sourcePoint" />
            <mxPoint x="1295.9350000000002" y="360.00500000000005" as="targetPoint" />
          </mxGeometry>
        </mxCell>
        <mxCell id="Dn-dgKpDhfG5w00fbfHs-94" value="" style="endArrow=none;html=1;rounded=0;fontSize=22;" parent="1" edge="1">
          <mxGeometry width="50" height="50" relative="1" as="geometry">
            <mxPoint x="1425.9350000000002" y="400.00500000000005" as="sourcePoint" />
            <mxPoint x="1425.9350000000002" y="360.00500000000005" as="targetPoint" />
          </mxGeometry>
        </mxCell>
        <mxCell id="Dn-dgKpDhfG5w00fbfHs-95" value="&lt;font style=&quot;font-size: 22px;&quot;&gt;选择词库&lt;/font&gt;" style="rounded=0;whiteSpace=wrap;html=1;fontSize=22;horizontal=0;verticalAlign=middle;rotation=90;" parent="1" vertex="1">
          <mxGeometry x="1200.005" y="480.00500000000005" width="195.93" height="35.62" as="geometry" />
        </mxCell>
        <mxCell id="Dn-dgKpDhfG5w00fbfHs-96" value="&lt;font style=&quot;font-size: 22px;&quot;&gt;退出登录&lt;/font&gt;" style="rounded=0;whiteSpace=wrap;html=1;fontSize=22;horizontal=0;verticalAlign=middle;rotation=90;" parent="1" vertex="1">
          <mxGeometry x="1325.93" y="480.01000000000005" width="195.93" height="35.62" as="geometry" />
        </mxCell>
        <mxCell id="Dn-dgKpDhfG5w00fbfHs-98" style="edgeStyle=orthogonalEdgeStyle;rounded=0;orthogonalLoop=1;jettySize=auto;html=1;fontSize=22;" parent="1" source="Dn-dgKpDhfG5w00fbfHs-97" edge="1">
          <mxGeometry relative="1" as="geometry">
            <mxPoint x="1357.9599999999996" y="330" as="targetPoint" />
          </mxGeometry>
        </mxCell>
        <mxCell id="Dn-dgKpDhfG5w00fbfHs-97" value="&lt;font style=&quot;font-size: 22px;&quot;&gt;设置每日词汇量&lt;br&gt;&lt;/font&gt;" style="rounded=0;whiteSpace=wrap;html=1;fontSize=22;horizontal=0;verticalAlign=middle;rotation=90;" parent="1" vertex="1">
          <mxGeometry x="1259.9950000000001" y="480.01499999999993" width="195.93" height="35.62" as="geometry" />
        </mxCell>
      </root>
    </mxGraphModel>
  </diagram>
  <diagram id="IFEyVx10EWDv_Z1fwSX8" name="第 2 页">
    <mxGraphModel dx="764" dy="561" grid="1" gridSize="10" guides="1" tooltips="1" connect="1" arrows="1" fold="1" page="1" pageScale="1" pageWidth="827" pageHeight="1169" math="0" shadow="0">
      <root>
        <mxCell id="0" />
        <mxCell id="1" parent="0" />
        <mxCell id="dAinDHLjs53kjs3WuzYP-2" value="用户" style="ellipse;whiteSpace=wrap;html=1;aspect=fixed;" vertex="1" parent="1">
          <mxGeometry x="100" y="190" width="40" height="40" as="geometry" />
        </mxCell>
        <mxCell id="dAinDHLjs53kjs3WuzYP-4" value="" style="endArrow=classic;html=1;rounded=0;" edge="1" parent="1">
          <mxGeometry width="50" height="50" relative="1" as="geometry">
            <mxPoint x="140" y="209.5" as="sourcePoint" />
            <mxPoint x="180" y="210" as="targetPoint" />
            <Array as="points">
              <mxPoint x="170" y="209.5" />
            </Array>
          </mxGeometry>
        </mxCell>
        <mxCell id="dAinDHLjs53kjs3WuzYP-5" value="登录" style="rounded=0;whiteSpace=wrap;html=1;" vertex="1" parent="1">
          <mxGeometry x="180" y="190" width="70" height="35" as="geometry" />
        </mxCell>
        <mxCell id="dAinDHLjs53kjs3WuzYP-7" value="" style="endArrow=classic;html=1;rounded=0;" edge="1" parent="1">
          <mxGeometry width="50" height="50" relative="1" as="geometry">
            <mxPoint x="250" y="209.5" as="sourcePoint" />
            <mxPoint x="290" y="210" as="targetPoint" />
            <Array as="points">
              <mxPoint x="280" y="209.5" />
            </Array>
          </mxGeometry>
        </mxCell>
        <mxCell id="dAinDHLjs53kjs3WuzYP-12" value="是否成功" style="rhombus;whiteSpace=wrap;html=1;" vertex="1" parent="1">
          <mxGeometry x="290" y="190" width="80" height="40" as="geometry" />
        </mxCell>
        <mxCell id="dAinDHLjs53kjs3WuzYP-14" value="N" style="text;html=1;strokeColor=none;fillColor=none;align=center;verticalAlign=middle;whiteSpace=wrap;rounded=0;" vertex="1" parent="1">
          <mxGeometry x="240" y="240" width="60" height="30" as="geometry" />
        </mxCell>
        <mxCell id="dAinDHLjs53kjs3WuzYP-16" value="" style="endArrow=classic;html=1;rounded=0;exitX=0.5;exitY=1;exitDx=0;exitDy=0;" edge="1" parent="1" source="dAinDHLjs53kjs3WuzYP-12">
          <mxGeometry width="50" height="50" relative="1" as="geometry">
            <mxPoint x="380" y="320" as="sourcePoint" />
            <mxPoint x="220" y="230" as="targetPoint" />
            <Array as="points">
              <mxPoint x="330" y="260" />
              <mxPoint x="220" y="260" />
            </Array>
          </mxGeometry>
        </mxCell>
        <mxCell id="dAinDHLjs53kjs3WuzYP-19" value="" style="endArrow=classic;html=1;rounded=0;" edge="1" parent="1">
          <mxGeometry width="50" height="50" relative="1" as="geometry">
            <mxPoint x="600" y="209.5" as="sourcePoint" />
            <mxPoint x="640" y="210" as="targetPoint" />
            <Array as="points">
              <mxPoint x="630" y="209.5" />
            </Array>
          </mxGeometry>
        </mxCell>
        <mxCell id="dAinDHLjs53kjs3WuzYP-21" value="" style="endArrow=classic;html=1;rounded=0;" edge="1" parent="1">
          <mxGeometry width="50" height="50" relative="1" as="geometry">
            <mxPoint x="490" y="209.5" as="sourcePoint" />
            <mxPoint x="530" y="210" as="targetPoint" />
            <Array as="points">
              <mxPoint x="520" y="209.5" />
            </Array>
          </mxGeometry>
        </mxCell>
        <mxCell id="dAinDHLjs53kjs3WuzYP-26" value="" style="endArrow=classic;html=1;rounded=0;exitX=1;exitY=0.5;exitDx=0;exitDy=0;" edge="1" parent="1" source="dAinDHLjs53kjs3WuzYP-12">
          <mxGeometry width="50" height="50" relative="1" as="geometry">
            <mxPoint x="380" y="320" as="sourcePoint" />
            <mxPoint x="420" y="210" as="targetPoint" />
          </mxGeometry>
        </mxCell>
        <mxCell id="dAinDHLjs53kjs3WuzYP-27" value="Y" style="text;html=1;strokeColor=none;fillColor=none;align=center;verticalAlign=middle;whiteSpace=wrap;rounded=0;" vertex="1" parent="1">
          <mxGeometry x="360" y="190" width="60" height="30" as="geometry" />
        </mxCell>
        <mxCell id="dAinDHLjs53kjs3WuzYP-29" value="配置信息" style="rounded=0;whiteSpace=wrap;html=1;" vertex="1" parent="1">
          <mxGeometry x="420" y="192.5" width="70" height="35" as="geometry" />
        </mxCell>
        <mxCell id="dAinDHLjs53kjs3WuzYP-30" value="学习词汇" style="rounded=0;whiteSpace=wrap;html=1;" vertex="1" parent="1">
          <mxGeometry x="530" y="192.5" width="70" height="35" as="geometry" />
        </mxCell>
        <mxCell id="dAinDHLjs53kjs3WuzYP-31" value="复习生词本" style="rounded=0;whiteSpace=wrap;html=1;" vertex="1" parent="1">
          <mxGeometry x="640" y="192.5" width="70" height="35" as="geometry" />
        </mxCell>
        <mxCell id="dAinDHLjs53kjs3WuzYP-36" value="" style="endArrow=classic;html=1;rounded=0;" edge="1" parent="1">
          <mxGeometry width="50" height="50" relative="1" as="geometry">
            <mxPoint x="560" y="230" as="sourcePoint" />
            <mxPoint x="560" y="270" as="targetPoint" />
            <Array as="points" />
          </mxGeometry>
        </mxCell>
        <mxCell id="dAinDHLjs53kjs3WuzYP-37" value="" style="endArrow=classic;html=1;rounded=0;" edge="1" parent="1">
          <mxGeometry width="50" height="50" relative="1" as="geometry">
            <mxPoint x="700" y="209.5" as="sourcePoint" />
            <mxPoint x="740" y="210" as="targetPoint" />
            <Array as="points">
              <mxPoint x="730" y="209.5" />
            </Array>
          </mxGeometry>
        </mxCell>
        <mxCell id="dAinDHLjs53kjs3WuzYP-38" value="查询单词" style="rounded=0;whiteSpace=wrap;html=1;" vertex="1" parent="1">
          <mxGeometry x="530" y="270" width="70" height="35" as="geometry" />
        </mxCell>
        <mxCell id="dAinDHLjs53kjs3WuzYP-39" value="" style="endArrow=classic;html=1;rounded=0;exitX=1;exitY=0.5;exitDx=0;exitDy=0;" edge="1" parent="1" source="dAinDHLjs53kjs3WuzYP-38">
          <mxGeometry width="50" height="50" relative="1" as="geometry">
            <mxPoint x="370" y="320" as="sourcePoint" />
            <mxPoint x="680" y="230" as="targetPoint" />
            <Array as="points">
              <mxPoint x="680" y="288" />
            </Array>
          </mxGeometry>
        </mxCell>
        <mxCell id="dAinDHLjs53kjs3WuzYP-40" value="退出登录" style="rounded=0;whiteSpace=wrap;html=1;" vertex="1" parent="1">
          <mxGeometry x="740" y="192.5" width="70" height="35" as="geometry" />
        </mxCell>
      </root>
    </mxGraphModel>
  </diagram>
  <diagram id="VOohBEAkSID-i8T9yV2i" name="第 3 页">
    <mxGraphModel dx="764" dy="561" grid="1" gridSize="10" guides="1" tooltips="1" connect="1" arrows="1" fold="1" page="1" pageScale="1" pageWidth="827" pageHeight="1169" math="0" shadow="0">
      <root>
        <mxCell id="0" />
        <mxCell id="1" parent="0" />
        <mxCell id="9-ZocOAm62zNuJTVVG2i-1" value="管理员" style="rounded=1;whiteSpace=wrap;html=1;absoluteArcSize=1;arcSize=14;strokeWidth=2;" vertex="1" parent="1">
          <mxGeometry x="60" y="230" width="60" height="60" as="geometry" />
        </mxCell>
        <mxCell id="9-ZocOAm62zNuJTVVG2i-2" value="" style="endArrow=classic;html=1;rounded=0;exitX=1;exitY=0.25;exitDx=0;exitDy=0;" edge="1" parent="1" source="9-ZocOAm62zNuJTVVG2i-1">
          <mxGeometry width="50" height="50" relative="1" as="geometry">
            <mxPoint x="370" y="320" as="sourcePoint" />
            <mxPoint x="240" y="245" as="targetPoint" />
            <Array as="points" />
          </mxGeometry>
        </mxCell>
        <mxCell id="9-ZocOAm62zNuJTVVG2i-3" value="" style="endArrow=classic;html=1;rounded=0;exitX=1;exitY=0.25;exitDx=0;exitDy=0;" edge="1" parent="1">
          <mxGeometry width="50" height="50" relative="1" as="geometry">
            <mxPoint x="120" y="280" as="sourcePoint" />
            <mxPoint x="240" y="280" as="targetPoint" />
          </mxGeometry>
        </mxCell>
        <mxCell id="9-ZocOAm62zNuJTVVG2i-4" value="" style="endArrow=classic;html=1;rounded=0;exitX=1;exitY=0.25;exitDx=0;exitDy=0;" edge="1" parent="1">
          <mxGeometry width="50" height="50" relative="1" as="geometry">
            <mxPoint x="300" y="280" as="sourcePoint" />
            <mxPoint x="420" y="280" as="targetPoint" />
          </mxGeometry>
        </mxCell>
        <mxCell id="9-ZocOAm62zNuJTVVG2i-5" value="" style="endArrow=classic;html=1;rounded=0;exitX=1;exitY=0.25;exitDx=0;exitDy=0;" edge="1" parent="1">
          <mxGeometry width="50" height="50" relative="1" as="geometry">
            <mxPoint x="300" y="245" as="sourcePoint" />
            <mxPoint x="420" y="245" as="targetPoint" />
          </mxGeometry>
        </mxCell>
        <mxCell id="9-ZocOAm62zNuJTVVG2i-7" value="单词信息" style="text;html=1;strokeColor=none;fillColor=none;align=center;verticalAlign=middle;whiteSpace=wrap;rounded=0;" vertex="1" parent="1">
          <mxGeometry x="140" y="210" width="60" height="30" as="geometry" />
        </mxCell>
        <mxCell id="9-ZocOAm62zNuJTVVG2i-8" value="用户信息" style="text;html=1;strokeColor=none;fillColor=none;align=center;verticalAlign=middle;whiteSpace=wrap;rounded=0;" vertex="1" parent="1">
          <mxGeometry x="140" y="245" width="60" height="30" as="geometry" />
        </mxCell>
        <mxCell id="9-ZocOAm62zNuJTVVG2i-10" value="" style="verticalLabelPosition=bottom;verticalAlign=top;html=1;shape=process;whiteSpace=wrap;rounded=1;size=0.14;arcSize=6;rotation=-90;" vertex="1" parent="1">
          <mxGeometry x="220" y="230" width="100" height="60" as="geometry" />
        </mxCell>
        <mxCell id="9-ZocOAm62zNuJTVVG2i-11" value="P0" style="text;html=1;strokeColor=none;fillColor=none;align=center;verticalAlign=middle;whiteSpace=wrap;rounded=0;" vertex="1" parent="1">
          <mxGeometry x="240" y="200" width="60" height="30" as="geometry" />
        </mxCell>
        <mxCell id="9-ZocOAm62zNuJTVVG2i-12" value="大学英语词汇学习平台" style="text;html=1;strokeColor=none;fillColor=none;align=center;verticalAlign=middle;whiteSpace=wrap;rounded=0;" vertex="1" parent="1">
          <mxGeometry x="240" y="240" width="60" height="30" as="geometry" />
        </mxCell>
        <mxCell id="9-ZocOAm62zNuJTVVG2i-13" value="单词信息" style="text;html=1;strokeColor=none;fillColor=none;align=center;verticalAlign=middle;whiteSpace=wrap;rounded=0;" vertex="1" parent="1">
          <mxGeometry x="330" y="210" width="60" height="30" as="geometry" />
        </mxCell>
        <mxCell id="9-ZocOAm62zNuJTVVG2i-14" value="用户信息" style="text;html=1;strokeColor=none;fillColor=none;align=center;verticalAlign=middle;whiteSpace=wrap;rounded=0;" vertex="1" parent="1">
          <mxGeometry x="330" y="245" width="60" height="30" as="geometry" />
        </mxCell>
        <mxCell id="9-ZocOAm62zNuJTVVG2i-15" value="用户" style="rounded=1;whiteSpace=wrap;html=1;absoluteArcSize=1;arcSize=14;strokeWidth=2;" vertex="1" parent="1">
          <mxGeometry x="420" y="230" width="60" height="60" as="geometry" />
        </mxCell>
      </root>
    </mxGraphModel>
  </diagram>
  <diagram id="ubeRmHiTWh4Sw9bKm3wP" name="第 4 页">
    <mxGraphModel dx="764" dy="561" grid="1" gridSize="10" guides="1" tooltips="1" connect="1" arrows="1" fold="1" page="1" pageScale="1" pageWidth="827" pageHeight="1169" math="0" shadow="0">
      <root>
        <mxCell id="0" />
        <mxCell id="1" parent="0" />
        <mxCell id="RpboRhRNesT7Bl7NkwL7-23" value="" style="verticalLabelPosition=bottom;verticalAlign=top;html=1;shape=mxgraph.basic.rect;fillColor2=none;strokeWidth=1;size=20;indent=5;fontFamily=Helvetica;fontSize=11;fontColor=default;" vertex="1" parent="1">
          <mxGeometry x="190" y="160" width="280" height="370" as="geometry" />
        </mxCell>
        <mxCell id="RpboRhRNesT7Bl7NkwL7-1" value="管理员" style="rounded=1;whiteSpace=wrap;html=1;absoluteArcSize=1;arcSize=14;strokeWidth=2;" vertex="1" parent="1">
          <mxGeometry x="70" y="190" width="60" height="60" as="geometry" />
        </mxCell>
        <mxCell id="RpboRhRNesT7Bl7NkwL7-2" value="用户" style="rounded=1;whiteSpace=wrap;html=1;absoluteArcSize=1;arcSize=14;strokeWidth=2;" vertex="1" parent="1">
          <mxGeometry x="70" y="440" width="60" height="60" as="geometry" />
        </mxCell>
        <mxCell id="RpboRhRNesT7Bl7NkwL7-17" style="edgeStyle=none;shape=connector;rounded=0;orthogonalLoop=1;jettySize=auto;html=1;exitX=1;exitY=0.5;exitDx=0;exitDy=0;labelBackgroundColor=default;strokeColor=default;fontFamily=Helvetica;fontSize=11;fontColor=default;endArrow=classic;" edge="1" parent="1">
          <mxGeometry relative="1" as="geometry">
            <mxPoint x="335" y="562.5" as="sourcePoint" />
            <mxPoint x="335" y="562.5" as="targetPoint" />
          </mxGeometry>
        </mxCell>
        <mxCell id="RpboRhRNesT7Bl7NkwL7-21" value="" style="endArrow=none;html=1;rounded=0;labelBackgroundColor=default;strokeColor=default;fontFamily=Helvetica;fontSize=11;fontColor=default;shape=connector;exitX=1;exitY=0.5;exitDx=0;exitDy=0;" edge="1" parent="1" source="RpboRhRNesT7Bl7NkwL7-1">
          <mxGeometry width="50" height="50" relative="1" as="geometry">
            <mxPoint x="370" y="320" as="sourcePoint" />
            <mxPoint x="220" y="220" as="targetPoint" />
          </mxGeometry>
        </mxCell>
        <mxCell id="RpboRhRNesT7Bl7NkwL7-22" value="" style="endArrow=none;html=1;rounded=0;labelBackgroundColor=default;strokeColor=default;fontFamily=Helvetica;fontSize=11;fontColor=default;shape=connector;exitX=1;exitY=0.5;exitDx=0;exitDy=0;" edge="1" parent="1">
          <mxGeometry width="50" height="50" relative="1" as="geometry">
            <mxPoint x="130" y="469.5" as="sourcePoint" />
            <mxPoint x="220" y="469.5" as="targetPoint" />
          </mxGeometry>
        </mxCell>
        <mxCell id="RpboRhRNesT7Bl7NkwL7-25" value="" style="endArrow=classic;html=1;rounded=0;labelBackgroundColor=default;strokeColor=default;fontFamily=Helvetica;fontSize=11;fontColor=default;shape=connector;exitX=0.011;exitY=0.233;exitDx=0;exitDy=0;exitPerimeter=0;" edge="1" parent="1">
          <mxGeometry width="50" height="50" relative="1" as="geometry">
            <mxPoint x="220" y="469.5" as="sourcePoint" />
            <mxPoint x="257" y="469.5" as="targetPoint" />
          </mxGeometry>
        </mxCell>
        <mxCell id="RpboRhRNesT7Bl7NkwL7-26" value="" style="endArrow=classic;html=1;rounded=0;labelBackgroundColor=default;strokeColor=default;fontFamily=Helvetica;fontSize=11;fontColor=default;shape=connector;exitX=0.011;exitY=0.233;exitDx=0;exitDy=0;exitPerimeter=0;" edge="1" parent="1">
          <mxGeometry width="50" height="50" relative="1" as="geometry">
            <mxPoint x="220" y="219.5" as="sourcePoint" />
            <mxPoint x="257" y="219.5" as="targetPoint" />
          </mxGeometry>
        </mxCell>
        <mxCell id="RpboRhRNesT7Bl7NkwL7-27" value="" style="verticalLabelPosition=bottom;verticalAlign=top;html=1;shape=process;whiteSpace=wrap;rounded=1;size=0.14;arcSize=6;fontFamily=Helvetica;fontSize=11;fontColor=default;rotation=-90;" vertex="1" parent="1">
          <mxGeometry x="240" y="190" width="100" height="60" as="geometry" />
        </mxCell>
        <mxCell id="RpboRhRNesT7Bl7NkwL7-28" value="" style="verticalLabelPosition=bottom;verticalAlign=top;html=1;shape=process;whiteSpace=wrap;rounded=1;size=0.14;arcSize=6;fontFamily=Helvetica;fontSize=11;fontColor=default;rotation=-90;" vertex="1" parent="1">
          <mxGeometry x="240" y="440" width="100" height="60" as="geometry" />
        </mxCell>
        <mxCell id="RpboRhRNesT7Bl7NkwL7-29" value="P1" style="text;html=1;strokeColor=none;fillColor=none;align=center;verticalAlign=middle;whiteSpace=wrap;rounded=0;fontSize=11;fontFamily=Helvetica;fontColor=default;" vertex="1" parent="1">
          <mxGeometry x="260" y="160" width="60" height="30" as="geometry" />
        </mxCell>
        <mxCell id="RpboRhRNesT7Bl7NkwL7-30" value="P2" style="text;html=1;strokeColor=none;fillColor=none;align=center;verticalAlign=middle;whiteSpace=wrap;rounded=0;fontSize=11;fontFamily=Helvetica;fontColor=default;" vertex="1" parent="1">
          <mxGeometry x="260" y="410" width="60" height="30" as="geometry" />
        </mxCell>
        <mxCell id="RpboRhRNesT7Bl7NkwL7-31" value="管理员子系统" style="text;html=1;strokeColor=none;fillColor=none;align=center;verticalAlign=middle;whiteSpace=wrap;rounded=0;fontSize=11;fontFamily=Helvetica;fontColor=default;" vertex="1" parent="1">
          <mxGeometry x="260" y="205" width="60" height="30" as="geometry" />
        </mxCell>
        <mxCell id="RpboRhRNesT7Bl7NkwL7-32" value="用户子系统" style="text;html=1;strokeColor=none;fillColor=none;align=center;verticalAlign=middle;whiteSpace=wrap;rounded=0;fontSize=11;fontFamily=Helvetica;fontColor=default;" vertex="1" parent="1">
          <mxGeometry x="260" y="455" width="60" height="30" as="geometry" />
        </mxCell>
        <mxCell id="RpboRhRNesT7Bl7NkwL7-35" value="" style="strokeWidth=2;html=1;shape=mxgraph.flowchart.annotation_1;align=left;pointerEvents=1;fontFamily=Helvetica;fontSize=11;fontColor=default;" vertex="1" parent="1">
          <mxGeometry x="360" y="190" width="80" height="30" as="geometry" />
        </mxCell>
        <mxCell id="RpboRhRNesT7Bl7NkwL7-36" value="" style="endArrow=none;html=1;rounded=0;labelBackgroundColor=default;strokeColor=default;fontFamily=Helvetica;fontSize=11;fontColor=default;shape=connector;" edge="1" parent="1">
          <mxGeometry width="50" height="50" relative="1" as="geometry">
            <mxPoint x="390" y="220" as="sourcePoint" />
            <mxPoint x="390" y="190" as="targetPoint" />
          </mxGeometry>
        </mxCell>
        <mxCell id="RpboRhRNesT7Bl7NkwL7-45" value="" style="strokeWidth=2;html=1;shape=mxgraph.flowchart.annotation_1;align=left;pointerEvents=1;fontFamily=Helvetica;fontSize=11;fontColor=default;" vertex="1" parent="1">
          <mxGeometry x="360" y="230" width="80" height="30" as="geometry" />
        </mxCell>
        <mxCell id="RpboRhRNesT7Bl7NkwL7-46" value="" style="endArrow=none;html=1;rounded=0;labelBackgroundColor=default;strokeColor=default;fontFamily=Helvetica;fontSize=11;fontColor=default;shape=connector;" edge="1" parent="1">
          <mxGeometry width="50" height="50" relative="1" as="geometry">
            <mxPoint x="390" y="260" as="sourcePoint" />
            <mxPoint x="390" y="230" as="targetPoint" />
          </mxGeometry>
        </mxCell>
        <mxCell id="RpboRhRNesT7Bl7NkwL7-47" value="" style="endArrow=classic;html=1;rounded=0;entryX=0;entryY=0.5;entryDx=0;entryDy=0;" edge="1" parent="1" target="RpboRhRNesT7Bl7NkwL7-27">
          <mxGeometry width="50" height="50" relative="1" as="geometry">
            <mxPoint x="290" y="310" as="sourcePoint" />
            <mxPoint x="310" y="310" as="targetPoint" />
          </mxGeometry>
        </mxCell>
        <mxCell id="RpboRhRNesT7Bl7NkwL7-48" value="" style="endArrow=classic;html=1;rounded=0;" edge="1" parent="1">
          <mxGeometry width="50" height="50" relative="1" as="geometry">
            <mxPoint x="320" y="244.5" as="sourcePoint" />
            <mxPoint x="360" y="244.5" as="targetPoint" />
          </mxGeometry>
        </mxCell>
        <mxCell id="RpboRhRNesT7Bl7NkwL7-49" value="" style="endArrow=classic;html=1;rounded=0;" edge="1" parent="1">
          <mxGeometry width="50" height="50" relative="1" as="geometry">
            <mxPoint x="320" y="205" as="sourcePoint" />
            <mxPoint x="360" y="205" as="targetPoint" />
          </mxGeometry>
        </mxCell>
        <mxCell id="RpboRhRNesT7Bl7NkwL7-60" value="" style="strokeWidth=2;html=1;shape=mxgraph.flowchart.annotation_1;align=left;pointerEvents=1;fontFamily=Helvetica;fontSize=11;fontColor=default;" vertex="1" parent="1">
          <mxGeometry x="250" y="310" width="80" height="30" as="geometry" />
        </mxCell>
        <mxCell id="RpboRhRNesT7Bl7NkwL7-61" value="" style="endArrow=none;html=1;rounded=0;labelBackgroundColor=default;strokeColor=default;fontFamily=Helvetica;fontSize=11;fontColor=default;shape=connector;" edge="1" parent="1">
          <mxGeometry width="50" height="50" relative="1" as="geometry">
            <mxPoint x="280" y="340" as="sourcePoint" />
            <mxPoint x="280" y="310" as="targetPoint" />
          </mxGeometry>
        </mxCell>
        <mxCell id="RpboRhRNesT7Bl7NkwL7-62" value="D1" style="text;html=1;strokeColor=none;fillColor=none;align=center;verticalAlign=middle;whiteSpace=wrap;rounded=0;fontSize=11;fontFamily=Helvetica;fontColor=default;" vertex="1" parent="1">
          <mxGeometry x="350" y="190" width="60" height="30" as="geometry" />
        </mxCell>
        <mxCell id="RpboRhRNesT7Bl7NkwL7-63" value="D2" style="text;html=1;strokeColor=none;fillColor=none;align=center;verticalAlign=middle;whiteSpace=wrap;rounded=0;fontSize=11;fontFamily=Helvetica;fontColor=default;" vertex="1" parent="1">
          <mxGeometry x="350" y="230" width="60" height="30" as="geometry" />
        </mxCell>
        <mxCell id="RpboRhRNesT7Bl7NkwL7-64" value="单词信息" style="text;html=1;strokeColor=none;fillColor=none;align=center;verticalAlign=middle;whiteSpace=wrap;rounded=0;fontSize=11;fontFamily=Helvetica;fontColor=default;" vertex="1" parent="1">
          <mxGeometry x="390" y="190" width="60" height="30" as="geometry" />
        </mxCell>
        <mxCell id="RpboRhRNesT7Bl7NkwL7-65" value="用户信息" style="text;html=1;strokeColor=none;fillColor=none;align=center;verticalAlign=middle;whiteSpace=wrap;rounded=0;fontSize=11;fontFamily=Helvetica;fontColor=default;" vertex="1" parent="1">
          <mxGeometry x="390" y="230" width="60" height="30" as="geometry" />
        </mxCell>
        <mxCell id="RpboRhRNesT7Bl7NkwL7-70" value="D3" style="text;html=1;strokeColor=none;fillColor=none;align=center;verticalAlign=middle;whiteSpace=wrap;rounded=0;fontSize=11;fontFamily=Helvetica;fontColor=default;" vertex="1" parent="1">
          <mxGeometry x="240" y="310" width="60" height="30" as="geometry" />
        </mxCell>
        <mxCell id="RpboRhRNesT7Bl7NkwL7-71" value="单词信息" style="text;html=1;strokeColor=none;fillColor=none;align=center;verticalAlign=middle;whiteSpace=wrap;rounded=0;fontSize=11;fontFamily=Helvetica;fontColor=default;" vertex="1" parent="1">
          <mxGeometry x="280" y="310" width="60" height="30" as="geometry" />
        </mxCell>
        <mxCell id="RpboRhRNesT7Bl7NkwL7-74" value="" style="endArrow=classic;html=1;rounded=0;exitX=0.25;exitY=1;exitDx=0;exitDy=0;entryX=1;entryY=0.5;entryDx=0;entryDy=0;" edge="1" parent="1" target="RpboRhRNesT7Bl7NkwL7-32">
          <mxGeometry width="50" height="50" relative="1" as="geometry">
            <mxPoint x="402.5" y="260" as="sourcePoint" />
            <mxPoint x="317.5" y="423" as="targetPoint" />
            <Array as="points">
              <mxPoint x="403" y="470" />
            </Array>
          </mxGeometry>
        </mxCell>
        <mxCell id="7D-JFgx-aTDXJb6kH2oK-1" value="" style="strokeWidth=2;html=1;shape=mxgraph.flowchart.annotation_1;align=left;pointerEvents=1;fontFamily=Helvetica;fontSize=11;fontColor=default;" vertex="1" parent="1">
          <mxGeometry x="250" y="350" width="80" height="30" as="geometry" />
        </mxCell>
        <mxCell id="7D-JFgx-aTDXJb6kH2oK-2" value="" style="endArrow=none;html=1;rounded=0;labelBackgroundColor=default;strokeColor=default;fontFamily=Helvetica;fontSize=11;fontColor=default;shape=connector;" edge="1" parent="1">
          <mxGeometry width="50" height="50" relative="1" as="geometry">
            <mxPoint x="280" y="380" as="sourcePoint" />
            <mxPoint x="280" y="350" as="targetPoint" />
          </mxGeometry>
        </mxCell>
        <mxCell id="7D-JFgx-aTDXJb6kH2oK-3" value="D4" style="text;html=1;strokeColor=none;fillColor=none;align=center;verticalAlign=middle;whiteSpace=wrap;rounded=0;fontSize=11;fontFamily=Helvetica;fontColor=default;" vertex="1" parent="1">
          <mxGeometry x="240" y="350" width="60" height="30" as="geometry" />
        </mxCell>
        <mxCell id="7D-JFgx-aTDXJb6kH2oK-4" value="用户信息" style="text;html=1;strokeColor=none;fillColor=none;align=center;verticalAlign=middle;whiteSpace=wrap;rounded=0;fontSize=11;fontFamily=Helvetica;fontColor=default;" vertex="1" parent="1">
          <mxGeometry x="280" y="350" width="60" height="30" as="geometry" />
        </mxCell>
        <mxCell id="7D-JFgx-aTDXJb6kH2oK-5" value="" style="endArrow=classic;html=1;rounded=0;entryX=0;entryY=0.5;entryDx=0;entryDy=0;" edge="1" parent="1">
          <mxGeometry width="50" height="50" relative="1" as="geometry">
            <mxPoint x="289.5" y="420" as="sourcePoint" />
            <mxPoint x="289.5" y="380" as="targetPoint" />
          </mxGeometry>
        </mxCell>
      </root>
    </mxGraphModel>
  </diagram>
  <diagram id="FP_JDCv1bI5-2iKPmz_F" name="第 5 页">
    <mxGraphModel dx="764" dy="561" grid="1" gridSize="10" guides="1" tooltips="1" connect="1" arrows="1" fold="1" page="1" pageScale="1" pageWidth="827" pageHeight="1169" math="0" shadow="0">
      <root>
        <mxCell id="0" />
        <mxCell id="1" parent="0" />
        <mxCell id="pNf4cyeByjtefPquy8uL-2" value="" style="rounded=0;whiteSpace=wrap;html=1;fontFamily=Helvetica;fontSize=11;fontColor=default;" vertex="1" parent="1">
          <mxGeometry x="220" y="30" width="200" height="460" as="geometry" />
        </mxCell>
        <mxCell id="T2vW2eJbjy0uklVeR4AG-1" value="管理员" style="rounded=1;whiteSpace=wrap;html=1;absoluteArcSize=1;arcSize=14;strokeWidth=2;" vertex="1" parent="1">
          <mxGeometry x="140" y="215" width="60" height="60" as="geometry" />
        </mxCell>
        <mxCell id="T2vW2eJbjy0uklVeR4AG-8" value="" style="verticalLabelPosition=bottom;verticalAlign=top;html=1;shape=process;whiteSpace=wrap;rounded=1;size=0.14;arcSize=6;fontFamily=Helvetica;fontSize=11;fontColor=default;rotation=-90;" vertex="1" parent="1">
          <mxGeometry x="260" y="60" width="100" height="60" as="geometry" />
        </mxCell>
        <mxCell id="T2vW2eJbjy0uklVeR4AG-10" value="P1.1" style="text;html=1;strokeColor=none;fillColor=none;align=center;verticalAlign=middle;whiteSpace=wrap;rounded=0;fontSize=11;fontFamily=Helvetica;fontColor=default;" vertex="1" parent="1">
          <mxGeometry x="280" y="30" width="60" height="30" as="geometry" />
        </mxCell>
        <mxCell id="T2vW2eJbjy0uklVeR4AG-12" value="查看生词本信息" style="text;html=1;strokeColor=none;fillColor=none;align=center;verticalAlign=middle;whiteSpace=wrap;rounded=0;fontSize=11;fontFamily=Helvetica;fontColor=default;" vertex="1" parent="1">
          <mxGeometry x="280" y="70" width="60" height="35" as="geometry" />
        </mxCell>
        <mxCell id="T2vW2eJbjy0uklVeR4AG-14" value="" style="strokeWidth=2;html=1;shape=mxgraph.flowchart.annotation_1;align=left;pointerEvents=1;fontFamily=Helvetica;fontSize=11;fontColor=default;" vertex="1" parent="1">
          <mxGeometry x="440" y="185" width="80" height="30" as="geometry" />
        </mxCell>
        <mxCell id="T2vW2eJbjy0uklVeR4AG-15" value="" style="endArrow=none;html=1;rounded=0;labelBackgroundColor=default;strokeColor=default;fontFamily=Helvetica;fontSize=11;fontColor=default;shape=connector;" edge="1" parent="1">
          <mxGeometry width="50" height="50" relative="1" as="geometry">
            <mxPoint x="470" y="215" as="sourcePoint" />
            <mxPoint x="470" y="185" as="targetPoint" />
          </mxGeometry>
        </mxCell>
        <mxCell id="T2vW2eJbjy0uklVeR4AG-16" value="" style="strokeWidth=2;html=1;shape=mxgraph.flowchart.annotation_1;align=left;pointerEvents=1;fontFamily=Helvetica;fontSize=11;fontColor=default;" vertex="1" parent="1">
          <mxGeometry x="440" y="280" width="80" height="30" as="geometry" />
        </mxCell>
        <mxCell id="T2vW2eJbjy0uklVeR4AG-17" value="" style="endArrow=none;html=1;rounded=0;labelBackgroundColor=default;strokeColor=default;fontFamily=Helvetica;fontSize=11;fontColor=default;shape=connector;" edge="1" parent="1">
          <mxGeometry width="50" height="50" relative="1" as="geometry">
            <mxPoint x="470" y="310" as="sourcePoint" />
            <mxPoint x="470" y="280" as="targetPoint" />
          </mxGeometry>
        </mxCell>
        <mxCell id="T2vW2eJbjy0uklVeR4AG-23" value="D1" style="text;html=1;strokeColor=none;fillColor=none;align=center;verticalAlign=middle;whiteSpace=wrap;rounded=0;fontSize=11;fontFamily=Helvetica;fontColor=default;" vertex="1" parent="1">
          <mxGeometry x="430" y="185" width="60" height="30" as="geometry" />
        </mxCell>
        <mxCell id="T2vW2eJbjy0uklVeR4AG-24" value="D2" style="text;html=1;strokeColor=none;fillColor=none;align=center;verticalAlign=middle;whiteSpace=wrap;rounded=0;fontSize=11;fontFamily=Helvetica;fontColor=default;" vertex="1" parent="1">
          <mxGeometry x="430" y="280" width="60" height="30" as="geometry" />
        </mxCell>
        <mxCell id="T2vW2eJbjy0uklVeR4AG-25" value="单词信息" style="text;html=1;strokeColor=none;fillColor=none;align=center;verticalAlign=middle;whiteSpace=wrap;rounded=0;fontSize=11;fontFamily=Helvetica;fontColor=default;" vertex="1" parent="1">
          <mxGeometry x="470" y="185" width="60" height="30" as="geometry" />
        </mxCell>
        <mxCell id="T2vW2eJbjy0uklVeR4AG-26" value="用户信息" style="text;html=1;strokeColor=none;fillColor=none;align=center;verticalAlign=middle;whiteSpace=wrap;rounded=0;fontSize=11;fontFamily=Helvetica;fontColor=default;" vertex="1" parent="1">
          <mxGeometry x="470" y="280" width="60" height="30" as="geometry" />
        </mxCell>
        <mxCell id="T2vW2eJbjy0uklVeR4AG-31" value="" style="verticalLabelPosition=bottom;verticalAlign=top;html=1;shape=process;whiteSpace=wrap;rounded=1;size=0.14;arcSize=6;fontFamily=Helvetica;fontSize=11;fontColor=default;rotation=-90;" vertex="1" parent="1">
          <mxGeometry x="260" y="170" width="100" height="60" as="geometry" />
        </mxCell>
        <mxCell id="T2vW2eJbjy0uklVeR4AG-32" value="P1.2" style="text;html=1;strokeColor=none;fillColor=none;align=center;verticalAlign=middle;whiteSpace=wrap;rounded=0;fontSize=11;fontFamily=Helvetica;fontColor=default;" vertex="1" parent="1">
          <mxGeometry x="280" y="140" width="60" height="30" as="geometry" />
        </mxCell>
        <mxCell id="T2vW2eJbjy0uklVeR4AG-33" value="修改生词本信息" style="text;html=1;strokeColor=none;fillColor=none;align=center;verticalAlign=middle;whiteSpace=wrap;rounded=0;fontSize=11;fontFamily=Helvetica;fontColor=default;" vertex="1" parent="1">
          <mxGeometry x="280" y="185" width="60" height="30" as="geometry" />
        </mxCell>
        <mxCell id="T2vW2eJbjy0uklVeR4AG-34" value="" style="verticalLabelPosition=bottom;verticalAlign=top;html=1;shape=process;whiteSpace=wrap;rounded=1;size=0.14;arcSize=6;fontFamily=Helvetica;fontSize=11;fontColor=default;rotation=-90;" vertex="1" parent="1">
          <mxGeometry x="260" y="280" width="100" height="60" as="geometry" />
        </mxCell>
        <mxCell id="T2vW2eJbjy0uklVeR4AG-35" value="P1.3" style="text;html=1;strokeColor=none;fillColor=none;align=center;verticalAlign=middle;whiteSpace=wrap;rounded=0;fontSize=11;fontFamily=Helvetica;fontColor=default;" vertex="1" parent="1">
          <mxGeometry x="280" y="250" width="60" height="30" as="geometry" />
        </mxCell>
        <mxCell id="T2vW2eJbjy0uklVeR4AG-36" value="查看用户信息" style="text;html=1;strokeColor=none;fillColor=none;align=center;verticalAlign=middle;whiteSpace=wrap;rounded=0;fontSize=11;fontFamily=Helvetica;fontColor=default;" vertex="1" parent="1">
          <mxGeometry x="280" y="295" width="60" height="30" as="geometry" />
        </mxCell>
        <mxCell id="T2vW2eJbjy0uklVeR4AG-37" value="" style="verticalLabelPosition=bottom;verticalAlign=top;html=1;shape=process;whiteSpace=wrap;rounded=1;size=0.14;arcSize=6;fontFamily=Helvetica;fontSize=11;fontColor=default;rotation=-90;" vertex="1" parent="1">
          <mxGeometry x="260" y="390" width="100" height="60" as="geometry" />
        </mxCell>
        <mxCell id="T2vW2eJbjy0uklVeR4AG-38" value="P1.4" style="text;html=1;strokeColor=none;fillColor=none;align=center;verticalAlign=middle;whiteSpace=wrap;rounded=0;fontSize=11;fontFamily=Helvetica;fontColor=default;" vertex="1" parent="1">
          <mxGeometry x="280" y="360" width="60" height="30" as="geometry" />
        </mxCell>
        <mxCell id="T2vW2eJbjy0uklVeR4AG-39" value="修改生词本信息" style="text;html=1;strokeColor=none;fillColor=none;align=center;verticalAlign=middle;whiteSpace=wrap;rounded=0;fontSize=11;fontFamily=Helvetica;fontColor=default;" vertex="1" parent="1">
          <mxGeometry x="280" y="405" width="60" height="30" as="geometry" />
        </mxCell>
        <mxCell id="T2vW2eJbjy0uklVeR4AG-42" value="" style="endArrow=none;html=1;rounded=0;labelBackgroundColor=default;strokeColor=default;fontFamily=Helvetica;fontSize=11;fontColor=default;shape=connector;exitX=1;exitY=0.5;exitDx=0;exitDy=0;" edge="1" parent="1" source="T2vW2eJbjy0uklVeR4AG-1">
          <mxGeometry width="50" height="50" relative="1" as="geometry">
            <mxPoint x="370" y="350" as="sourcePoint" />
            <mxPoint x="240" y="245" as="targetPoint" />
          </mxGeometry>
        </mxCell>
        <mxCell id="T2vW2eJbjy0uklVeR4AG-43" value="" style="endArrow=none;html=1;rounded=0;labelBackgroundColor=default;strokeColor=default;fontFamily=Helvetica;fontSize=11;fontColor=default;shape=connector;" edge="1" parent="1">
          <mxGeometry width="50" height="50" relative="1" as="geometry">
            <mxPoint x="240" y="420" as="sourcePoint" />
            <mxPoint x="240" y="120" as="targetPoint" />
          </mxGeometry>
        </mxCell>
        <mxCell id="T2vW2eJbjy0uklVeR4AG-45" value="" style="endArrow=classic;html=1;rounded=0;labelBackgroundColor=default;strokeColor=default;fontFamily=Helvetica;fontSize=11;fontColor=default;shape=connector;" edge="1" parent="1">
          <mxGeometry width="50" height="50" relative="1" as="geometry">
            <mxPoint x="240" y="120" as="sourcePoint" />
            <mxPoint x="280" y="120" as="targetPoint" />
          </mxGeometry>
        </mxCell>
        <mxCell id="T2vW2eJbjy0uklVeR4AG-46" value="" style="endArrow=classic;html=1;rounded=0;labelBackgroundColor=default;strokeColor=default;fontFamily=Helvetica;fontSize=11;fontColor=default;shape=connector;" edge="1" parent="1">
          <mxGeometry width="50" height="50" relative="1" as="geometry">
            <mxPoint x="240" y="200" as="sourcePoint" />
            <mxPoint x="280" y="200" as="targetPoint" />
          </mxGeometry>
        </mxCell>
        <mxCell id="T2vW2eJbjy0uklVeR4AG-47" value="" style="endArrow=classic;html=1;rounded=0;labelBackgroundColor=default;strokeColor=default;fontFamily=Helvetica;fontSize=11;fontColor=default;shape=connector;" edge="1" parent="1">
          <mxGeometry width="50" height="50" relative="1" as="geometry">
            <mxPoint x="240" y="295" as="sourcePoint" />
            <mxPoint x="280" y="295" as="targetPoint" />
          </mxGeometry>
        </mxCell>
        <mxCell id="T2vW2eJbjy0uklVeR4AG-48" value="" style="endArrow=classic;html=1;rounded=0;labelBackgroundColor=default;strokeColor=default;fontFamily=Helvetica;fontSize=11;fontColor=default;shape=connector;" edge="1" parent="1">
          <mxGeometry width="50" height="50" relative="1" as="geometry">
            <mxPoint x="240" y="420" as="sourcePoint" />
            <mxPoint x="280" y="420" as="targetPoint" />
          </mxGeometry>
        </mxCell>
        <mxCell id="T2vW2eJbjy0uklVeR4AG-49" value="" style="endArrow=none;html=1;rounded=0;labelBackgroundColor=default;strokeColor=default;fontFamily=Helvetica;fontSize=11;fontColor=default;shape=connector;" edge="1" parent="1">
          <mxGeometry width="50" height="50" relative="1" as="geometry">
            <mxPoint x="340" y="120" as="sourcePoint" />
            <mxPoint x="390" y="120" as="targetPoint" />
          </mxGeometry>
        </mxCell>
        <mxCell id="T2vW2eJbjy0uklVeR4AG-50" value="" style="endArrow=none;html=1;rounded=0;labelBackgroundColor=default;strokeColor=default;fontFamily=Helvetica;fontSize=11;fontColor=default;shape=connector;" edge="1" parent="1">
          <mxGeometry width="50" height="50" relative="1" as="geometry">
            <mxPoint x="340" y="199.5" as="sourcePoint" />
            <mxPoint x="390" y="199.5" as="targetPoint" />
          </mxGeometry>
        </mxCell>
        <mxCell id="T2vW2eJbjy0uklVeR4AG-51" value="" style="endArrow=none;html=1;rounded=0;labelBackgroundColor=default;strokeColor=default;fontFamily=Helvetica;fontSize=11;fontColor=default;shape=connector;" edge="1" parent="1">
          <mxGeometry width="50" height="50" relative="1" as="geometry">
            <mxPoint x="340" y="295" as="sourcePoint" />
            <mxPoint x="390" y="295" as="targetPoint" />
          </mxGeometry>
        </mxCell>
        <mxCell id="T2vW2eJbjy0uklVeR4AG-52" value="" style="endArrow=none;html=1;rounded=0;labelBackgroundColor=default;strokeColor=default;fontFamily=Helvetica;fontSize=11;fontColor=default;shape=connector;" edge="1" parent="1">
          <mxGeometry width="50" height="50" relative="1" as="geometry">
            <mxPoint x="340" y="419.5" as="sourcePoint" />
            <mxPoint x="390" y="419.5" as="targetPoint" />
          </mxGeometry>
        </mxCell>
        <mxCell id="T2vW2eJbjy0uklVeR4AG-53" value="" style="endArrow=none;html=1;rounded=0;labelBackgroundColor=default;strokeColor=default;fontFamily=Helvetica;fontSize=11;fontColor=default;shape=connector;" edge="1" parent="1">
          <mxGeometry width="50" height="50" relative="1" as="geometry">
            <mxPoint x="390" y="420" as="sourcePoint" />
            <mxPoint x="390" y="120" as="targetPoint" />
          </mxGeometry>
        </mxCell>
        <mxCell id="T2vW2eJbjy0uklVeR4AG-54" value="" style="endArrow=classic;html=1;rounded=0;labelBackgroundColor=default;strokeColor=default;fontFamily=Helvetica;fontSize=11;fontColor=default;shape=connector;" edge="1" parent="1">
          <mxGeometry width="50" height="50" relative="1" as="geometry">
            <mxPoint x="390" y="200" as="sourcePoint" />
            <mxPoint x="440" y="200" as="targetPoint" />
          </mxGeometry>
        </mxCell>
        <mxCell id="T2vW2eJbjy0uklVeR4AG-55" value="" style="endArrow=classic;html=1;rounded=0;labelBackgroundColor=default;strokeColor=default;fontFamily=Helvetica;fontSize=11;fontColor=default;shape=connector;" edge="1" parent="1">
          <mxGeometry width="50" height="50" relative="1" as="geometry">
            <mxPoint x="389" y="295" as="sourcePoint" />
            <mxPoint x="439" y="295" as="targetPoint" />
          </mxGeometry>
        </mxCell>
      </root>
    </mxGraphModel>
  </diagram>
  <diagram id="dF5Po-m5CONIPkxO2_tU" name="第 6 页">
    <mxGraphModel dx="1236" dy="581" grid="1" gridSize="10" guides="1" tooltips="1" connect="1" arrows="1" fold="1" page="1" pageScale="1" pageWidth="827" pageHeight="1169" math="0" shadow="0">
      <root>
        <mxCell id="0" />
        <mxCell id="1" parent="0" />
        <mxCell id="3JBNp_MJdbwPhKzYN6Ce-1" value="" style="rounded=0;whiteSpace=wrap;html=1;fontFamily=Helvetica;fontSize=11;fontColor=default;" vertex="1" parent="1">
          <mxGeometry x="240" y="275" width="200" height="460" as="geometry" />
        </mxCell>
        <mxCell id="3JBNp_MJdbwPhKzYN6Ce-2" value="用户" style="rounded=1;whiteSpace=wrap;html=1;absoluteArcSize=1;arcSize=14;strokeWidth=2;" vertex="1" parent="1">
          <mxGeometry x="160" y="455" width="60" height="60" as="geometry" />
        </mxCell>
        <mxCell id="3JBNp_MJdbwPhKzYN6Ce-3" value="" style="verticalLabelPosition=bottom;verticalAlign=top;html=1;shape=process;whiteSpace=wrap;rounded=1;size=0.14;arcSize=6;fontFamily=Helvetica;fontSize=11;fontColor=default;rotation=-90;" vertex="1" parent="1">
          <mxGeometry x="280" y="300" width="100" height="60" as="geometry" />
        </mxCell>
        <mxCell id="3JBNp_MJdbwPhKzYN6Ce-4" value="P2.1" style="text;html=1;strokeColor=none;fillColor=none;align=center;verticalAlign=middle;whiteSpace=wrap;rounded=0;fontSize=11;fontFamily=Helvetica;fontColor=default;" vertex="1" parent="1">
          <mxGeometry x="300" y="270" width="60" height="30" as="geometry" />
        </mxCell>
        <mxCell id="3JBNp_MJdbwPhKzYN6Ce-5" value="查看词汇信息" style="text;html=1;strokeColor=none;fillColor=none;align=center;verticalAlign=middle;whiteSpace=wrap;rounded=0;fontSize=11;fontFamily=Helvetica;fontColor=default;" vertex="1" parent="1">
          <mxGeometry x="300" y="310" width="60" height="35" as="geometry" />
        </mxCell>
        <mxCell id="3JBNp_MJdbwPhKzYN6Ce-6" value="" style="strokeWidth=2;html=1;shape=mxgraph.flowchart.annotation_1;align=left;pointerEvents=1;fontFamily=Helvetica;fontSize=11;fontColor=default;" vertex="1" parent="1">
          <mxGeometry x="460" y="425" width="80" height="30" as="geometry" />
        </mxCell>
        <mxCell id="3JBNp_MJdbwPhKzYN6Ce-7" value="" style="endArrow=none;html=1;rounded=0;labelBackgroundColor=default;strokeColor=default;fontFamily=Helvetica;fontSize=11;fontColor=default;shape=connector;" edge="1" parent="1">
          <mxGeometry width="50" height="50" relative="1" as="geometry">
            <mxPoint x="490" y="455" as="sourcePoint" />
            <mxPoint x="490" y="425" as="targetPoint" />
          </mxGeometry>
        </mxCell>
        <mxCell id="3JBNp_MJdbwPhKzYN6Ce-10" value="D3" style="text;html=1;strokeColor=none;fillColor=none;align=center;verticalAlign=middle;whiteSpace=wrap;rounded=0;fontSize=11;fontFamily=Helvetica;fontColor=default;" vertex="1" parent="1">
          <mxGeometry x="450" y="425" width="60" height="30" as="geometry" />
        </mxCell>
        <mxCell id="3JBNp_MJdbwPhKzYN6Ce-12" value="单词信息" style="text;html=1;strokeColor=none;fillColor=none;align=center;verticalAlign=middle;whiteSpace=wrap;rounded=0;fontSize=11;fontFamily=Helvetica;fontColor=default;" vertex="1" parent="1">
          <mxGeometry x="490" y="425" width="60" height="30" as="geometry" />
        </mxCell>
        <mxCell id="3JBNp_MJdbwPhKzYN6Ce-14" value="" style="verticalLabelPosition=bottom;verticalAlign=top;html=1;shape=process;whiteSpace=wrap;rounded=1;size=0.14;arcSize=6;fontFamily=Helvetica;fontSize=11;fontColor=default;rotation=-90;" vertex="1" parent="1">
          <mxGeometry x="280" y="410" width="100" height="60" as="geometry" />
        </mxCell>
        <mxCell id="3JBNp_MJdbwPhKzYN6Ce-15" value="P2.2" style="text;html=1;strokeColor=none;fillColor=none;align=center;verticalAlign=middle;whiteSpace=wrap;rounded=0;fontSize=11;fontFamily=Helvetica;fontColor=default;" vertex="1" parent="1">
          <mxGeometry x="300" y="380" width="60" height="30" as="geometry" />
        </mxCell>
        <mxCell id="3JBNp_MJdbwPhKzYN6Ce-16" value="查看生词本信息" style="text;html=1;strokeColor=none;fillColor=none;align=center;verticalAlign=middle;whiteSpace=wrap;rounded=0;fontSize=11;fontFamily=Helvetica;fontColor=default;" vertex="1" parent="1">
          <mxGeometry x="300" y="425" width="60" height="30" as="geometry" />
        </mxCell>
        <mxCell id="3JBNp_MJdbwPhKzYN6Ce-17" value="" style="verticalLabelPosition=bottom;verticalAlign=top;html=1;shape=process;whiteSpace=wrap;rounded=1;size=0.14;arcSize=6;fontFamily=Helvetica;fontSize=11;fontColor=default;rotation=-90;" vertex="1" parent="1">
          <mxGeometry x="280" y="520" width="100" height="60" as="geometry" />
        </mxCell>
        <mxCell id="3JBNp_MJdbwPhKzYN6Ce-18" value="P2.3" style="text;html=1;strokeColor=none;fillColor=none;align=center;verticalAlign=middle;whiteSpace=wrap;rounded=0;fontSize=11;fontFamily=Helvetica;fontColor=default;" vertex="1" parent="1">
          <mxGeometry x="300" y="490" width="60" height="30" as="geometry" />
        </mxCell>
        <mxCell id="3JBNp_MJdbwPhKzYN6Ce-19" value="修改用户信息" style="text;html=1;strokeColor=none;fillColor=none;align=center;verticalAlign=middle;whiteSpace=wrap;rounded=0;fontSize=11;fontFamily=Helvetica;fontColor=default;" vertex="1" parent="1">
          <mxGeometry x="300" y="535" width="60" height="30" as="geometry" />
        </mxCell>
        <mxCell id="3JBNp_MJdbwPhKzYN6Ce-20" value="" style="verticalLabelPosition=bottom;verticalAlign=top;html=1;shape=process;whiteSpace=wrap;rounded=1;size=0.14;arcSize=6;fontFamily=Helvetica;fontSize=11;fontColor=default;rotation=-90;" vertex="1" parent="1">
          <mxGeometry x="280" y="630" width="100" height="60" as="geometry" />
        </mxCell>
        <mxCell id="3JBNp_MJdbwPhKzYN6Ce-21" value="P2.4" style="text;html=1;strokeColor=none;fillColor=none;align=center;verticalAlign=middle;whiteSpace=wrap;rounded=0;fontSize=11;fontFamily=Helvetica;fontColor=default;" vertex="1" parent="1">
          <mxGeometry x="300" y="600" width="60" height="30" as="geometry" />
        </mxCell>
        <mxCell id="3JBNp_MJdbwPhKzYN6Ce-22" value="修改生词本信息" style="text;html=1;strokeColor=none;fillColor=none;align=center;verticalAlign=middle;whiteSpace=wrap;rounded=0;fontSize=11;fontFamily=Helvetica;fontColor=default;" vertex="1" parent="1">
          <mxGeometry x="300" y="645" width="60" height="30" as="geometry" />
        </mxCell>
        <mxCell id="3JBNp_MJdbwPhKzYN6Ce-23" value="" style="endArrow=none;html=1;rounded=0;labelBackgroundColor=default;strokeColor=default;fontFamily=Helvetica;fontSize=11;fontColor=default;shape=connector;exitX=1;exitY=0.5;exitDx=0;exitDy=0;" edge="1" parent="1" source="3JBNp_MJdbwPhKzYN6Ce-2">
          <mxGeometry width="50" height="50" relative="1" as="geometry">
            <mxPoint x="390" y="590" as="sourcePoint" />
            <mxPoint x="260" y="485" as="targetPoint" />
          </mxGeometry>
        </mxCell>
        <mxCell id="3JBNp_MJdbwPhKzYN6Ce-24" value="" style="endArrow=none;html=1;rounded=0;labelBackgroundColor=default;strokeColor=default;fontFamily=Helvetica;fontSize=11;fontColor=default;shape=connector;" edge="1" parent="1">
          <mxGeometry width="50" height="50" relative="1" as="geometry">
            <mxPoint x="260" y="660" as="sourcePoint" />
            <mxPoint x="260" y="360" as="targetPoint" />
          </mxGeometry>
        </mxCell>
        <mxCell id="3JBNp_MJdbwPhKzYN6Ce-25" value="" style="endArrow=classic;html=1;rounded=0;labelBackgroundColor=default;strokeColor=default;fontFamily=Helvetica;fontSize=11;fontColor=default;shape=connector;" edge="1" parent="1">
          <mxGeometry width="50" height="50" relative="1" as="geometry">
            <mxPoint x="260" y="360" as="sourcePoint" />
            <mxPoint x="300" y="360" as="targetPoint" />
          </mxGeometry>
        </mxCell>
        <mxCell id="3JBNp_MJdbwPhKzYN6Ce-26" value="" style="endArrow=classic;html=1;rounded=0;labelBackgroundColor=default;strokeColor=default;fontFamily=Helvetica;fontSize=11;fontColor=default;shape=connector;" edge="1" parent="1">
          <mxGeometry width="50" height="50" relative="1" as="geometry">
            <mxPoint x="260" y="440" as="sourcePoint" />
            <mxPoint x="300" y="440" as="targetPoint" />
          </mxGeometry>
        </mxCell>
        <mxCell id="3JBNp_MJdbwPhKzYN6Ce-27" value="" style="endArrow=classic;html=1;rounded=0;labelBackgroundColor=default;strokeColor=default;fontFamily=Helvetica;fontSize=11;fontColor=default;shape=connector;" edge="1" parent="1">
          <mxGeometry width="50" height="50" relative="1" as="geometry">
            <mxPoint x="260" y="535" as="sourcePoint" />
            <mxPoint x="300" y="535" as="targetPoint" />
          </mxGeometry>
        </mxCell>
        <mxCell id="3JBNp_MJdbwPhKzYN6Ce-28" value="" style="endArrow=classic;html=1;rounded=0;labelBackgroundColor=default;strokeColor=default;fontFamily=Helvetica;fontSize=11;fontColor=default;shape=connector;" edge="1" parent="1">
          <mxGeometry width="50" height="50" relative="1" as="geometry">
            <mxPoint x="260" y="660" as="sourcePoint" />
            <mxPoint x="300" y="660" as="targetPoint" />
          </mxGeometry>
        </mxCell>
        <mxCell id="3JBNp_MJdbwPhKzYN6Ce-29" value="" style="endArrow=none;html=1;rounded=0;labelBackgroundColor=default;strokeColor=default;fontFamily=Helvetica;fontSize=11;fontColor=default;shape=connector;" edge="1" parent="1">
          <mxGeometry width="50" height="50" relative="1" as="geometry">
            <mxPoint x="360" y="360" as="sourcePoint" />
            <mxPoint x="410" y="360" as="targetPoint" />
          </mxGeometry>
        </mxCell>
        <mxCell id="3JBNp_MJdbwPhKzYN6Ce-30" value="" style="endArrow=none;html=1;rounded=0;labelBackgroundColor=default;strokeColor=default;fontFamily=Helvetica;fontSize=11;fontColor=default;shape=connector;" edge="1" parent="1">
          <mxGeometry width="50" height="50" relative="1" as="geometry">
            <mxPoint x="360" y="439.5" as="sourcePoint" />
            <mxPoint x="410" y="439.5" as="targetPoint" />
          </mxGeometry>
        </mxCell>
        <mxCell id="3JBNp_MJdbwPhKzYN6Ce-31" value="" style="endArrow=none;html=1;rounded=0;labelBackgroundColor=default;strokeColor=default;fontFamily=Helvetica;fontSize=11;fontColor=default;shape=connector;" edge="1" parent="1">
          <mxGeometry width="50" height="50" relative="1" as="geometry">
            <mxPoint x="360" y="535" as="sourcePoint" />
            <mxPoint x="410" y="535" as="targetPoint" />
          </mxGeometry>
        </mxCell>
        <mxCell id="3JBNp_MJdbwPhKzYN6Ce-32" value="" style="endArrow=none;html=1;rounded=0;labelBackgroundColor=default;strokeColor=default;fontFamily=Helvetica;fontSize=11;fontColor=default;shape=connector;" edge="1" parent="1">
          <mxGeometry width="50" height="50" relative="1" as="geometry">
            <mxPoint x="360" y="659.5" as="sourcePoint" />
            <mxPoint x="410" y="659.5" as="targetPoint" />
          </mxGeometry>
        </mxCell>
        <mxCell id="3JBNp_MJdbwPhKzYN6Ce-33" value="" style="endArrow=none;html=1;rounded=0;labelBackgroundColor=default;strokeColor=default;fontFamily=Helvetica;fontSize=11;fontColor=default;shape=connector;" edge="1" parent="1">
          <mxGeometry width="50" height="50" relative="1" as="geometry">
            <mxPoint x="410" y="660" as="sourcePoint" />
            <mxPoint x="410" y="360" as="targetPoint" />
          </mxGeometry>
        </mxCell>
        <mxCell id="3JBNp_MJdbwPhKzYN6Ce-34" value="" style="endArrow=classic;html=1;rounded=0;labelBackgroundColor=default;strokeColor=default;fontFamily=Helvetica;fontSize=11;fontColor=default;shape=connector;" edge="1" parent="1">
          <mxGeometry width="50" height="50" relative="1" as="geometry">
            <mxPoint x="410" y="440" as="sourcePoint" />
            <mxPoint x="460" y="440" as="targetPoint" />
          </mxGeometry>
        </mxCell>
        <mxCell id="3JBNp_MJdbwPhKzYN6Ce-36" value="" style="endArrow=classic;html=1;rounded=0;labelBackgroundColor=default;strokeColor=default;fontFamily=Helvetica;fontSize=11;fontColor=default;shape=connector;" edge="1" parent="1">
          <mxGeometry width="50" height="50" relative="1" as="geometry">
            <mxPoint x="410" y="535" as="sourcePoint" />
            <mxPoint x="460" y="535" as="targetPoint" />
          </mxGeometry>
        </mxCell>
        <mxCell id="3JBNp_MJdbwPhKzYN6Ce-37" value="" style="strokeWidth=2;html=1;shape=mxgraph.flowchart.annotation_1;align=left;pointerEvents=1;fontFamily=Helvetica;fontSize=11;fontColor=default;" vertex="1" parent="1">
          <mxGeometry x="460" y="520" width="80" height="30" as="geometry" />
        </mxCell>
        <mxCell id="3JBNp_MJdbwPhKzYN6Ce-38" value="" style="endArrow=none;html=1;rounded=0;labelBackgroundColor=default;strokeColor=default;fontFamily=Helvetica;fontSize=11;fontColor=default;shape=connector;" edge="1" parent="1">
          <mxGeometry width="50" height="50" relative="1" as="geometry">
            <mxPoint x="490" y="550" as="sourcePoint" />
            <mxPoint x="490" y="520" as="targetPoint" />
          </mxGeometry>
        </mxCell>
        <mxCell id="3JBNp_MJdbwPhKzYN6Ce-39" value="D4" style="text;html=1;strokeColor=none;fillColor=none;align=center;verticalAlign=middle;whiteSpace=wrap;rounded=0;fontSize=11;fontFamily=Helvetica;fontColor=default;" vertex="1" parent="1">
          <mxGeometry x="450" y="520" width="60" height="30" as="geometry" />
        </mxCell>
        <mxCell id="3JBNp_MJdbwPhKzYN6Ce-40" value="用户信息" style="text;html=1;strokeColor=none;fillColor=none;align=center;verticalAlign=middle;whiteSpace=wrap;rounded=0;fontSize=11;fontFamily=Helvetica;fontColor=default;" vertex="1" parent="1">
          <mxGeometry x="490" y="520" width="60" height="30" as="geometry" />
        </mxCell>
      </root>
    </mxGraphModel>
  </diagram>
  <diagram id="fOSFzD2ZzR24J-UnTjLd" name="第 7 页">
    <mxGraphModel dx="706" dy="332" grid="1" gridSize="10" guides="1" tooltips="1" connect="1" arrows="1" fold="1" page="1" pageScale="1" pageWidth="827" pageHeight="1169" math="0" shadow="0">
      <root>
        <mxCell id="0" />
        <mxCell id="1" parent="0" />
        <mxCell id="aN3tA-tQK1jdyyEr9fkh-1" value="管理员" style="rounded=0;whiteSpace=wrap;html=1;" vertex="1" parent="1">
          <mxGeometry x="130" y="250" width="50" height="20" as="geometry" />
        </mxCell>
        <mxCell id="aN3tA-tQK1jdyyEr9fkh-2" value="" style="endArrow=none;html=1;rounded=0;exitX=1;exitY=0.5;exitDx=0;exitDy=0;" edge="1" parent="1" source="aN3tA-tQK1jdyyEr9fkh-1">
          <mxGeometry width="50" height="50" relative="1" as="geometry">
            <mxPoint x="240" y="285" as="sourcePoint" />
            <mxPoint x="220" y="260" as="targetPoint" />
          </mxGeometry>
        </mxCell>
        <mxCell id="aN3tA-tQK1jdyyEr9fkh-3" value="管理" style="rhombus;whiteSpace=wrap;html=1;" vertex="1" parent="1">
          <mxGeometry x="220" y="245" width="70" height="30" as="geometry" />
        </mxCell>
        <mxCell id="aN3tA-tQK1jdyyEr9fkh-4" value="1" style="text;html=1;strokeColor=none;fillColor=none;align=center;verticalAlign=middle;whiteSpace=wrap;rounded=0;" vertex="1" parent="1">
          <mxGeometry x="170" y="240" width="60" height="30" as="geometry" />
        </mxCell>
        <mxCell id="aN3tA-tQK1jdyyEr9fkh-5" value="n" style="text;html=1;strokeColor=none;fillColor=none;align=center;verticalAlign=middle;whiteSpace=wrap;rounded=0;" vertex="1" parent="1">
          <mxGeometry x="280" y="240" width="60" height="30" as="geometry" />
        </mxCell>
        <mxCell id="aN3tA-tQK1jdyyEr9fkh-6" value="1" style="text;html=1;strokeColor=none;fillColor=none;align=center;verticalAlign=middle;whiteSpace=wrap;rounded=0;" vertex="1" parent="1">
          <mxGeometry x="130" y="270" width="60" height="30" as="geometry" />
        </mxCell>
        <mxCell id="aN3tA-tQK1jdyyEr9fkh-7" value="1" style="text;html=1;strokeColor=none;fillColor=none;align=center;verticalAlign=middle;whiteSpace=wrap;rounded=0;" vertex="1" parent="1">
          <mxGeometry x="330" y="270" width="60" height="30" as="geometry" />
        </mxCell>
        <mxCell id="aN3tA-tQK1jdyyEr9fkh-8" value="n" style="text;html=1;strokeColor=none;fillColor=none;align=center;verticalAlign=middle;whiteSpace=wrap;rounded=0;" vertex="1" parent="1">
          <mxGeometry x="180" y="350" width="60" height="30" as="geometry" />
        </mxCell>
        <mxCell id="aN3tA-tQK1jdyyEr9fkh-12" value="" style="endArrow=none;html=1;rounded=0;exitX=1;exitY=0.5;exitDx=0;exitDy=0;" edge="1" parent="1">
          <mxGeometry width="50" height="50" relative="1" as="geometry">
            <mxPoint x="290" y="259.71" as="sourcePoint" />
            <mxPoint x="330" y="259.71" as="targetPoint" />
          </mxGeometry>
        </mxCell>
        <mxCell id="aN3tA-tQK1jdyyEr9fkh-13" value="" style="endArrow=none;html=1;rounded=0;exitX=0.5;exitY=1;exitDx=0;exitDy=0;" edge="1" parent="1" source="aN3tA-tQK1jdyyEr9fkh-18">
          <mxGeometry width="50" height="50" relative="1" as="geometry">
            <mxPoint x="340" y="290" as="sourcePoint" />
            <mxPoint x="355" y="300" as="targetPoint" />
          </mxGeometry>
        </mxCell>
        <mxCell id="aN3tA-tQK1jdyyEr9fkh-14" value="" style="endArrow=none;html=1;rounded=0;exitX=0.5;exitY=1;exitDx=0;exitDy=0;" edge="1" parent="1" source="aN3tA-tQK1jdyyEr9fkh-19">
          <mxGeometry width="50" height="50" relative="1" as="geometry">
            <mxPoint x="340" y="360" as="sourcePoint" />
            <mxPoint x="355" y="360" as="targetPoint" />
          </mxGeometry>
        </mxCell>
        <mxCell id="aN3tA-tQK1jdyyEr9fkh-15" value="" style="endArrow=none;html=1;rounded=0;" edge="1" parent="1">
          <mxGeometry width="50" height="50" relative="1" as="geometry">
            <mxPoint x="290" y="315" as="sourcePoint" />
            <mxPoint x="320" y="314.71" as="targetPoint" />
          </mxGeometry>
        </mxCell>
        <mxCell id="aN3tA-tQK1jdyyEr9fkh-16" value="" style="endArrow=none;html=1;rounded=0;exitX=0.5;exitY=1;exitDx=0;exitDy=0;entryX=0.5;entryY=0;entryDx=0;entryDy=0;" edge="1" parent="1" source="aN3tA-tQK1jdyyEr9fkh-1" target="aN3tA-tQK1jdyyEr9fkh-26">
          <mxGeometry width="50" height="50" relative="1" as="geometry">
            <mxPoint x="150" y="300" as="sourcePoint" />
            <mxPoint x="155" y="290" as="targetPoint" />
          </mxGeometry>
        </mxCell>
        <mxCell id="aN3tA-tQK1jdyyEr9fkh-18" value="用户" style="rounded=0;whiteSpace=wrap;html=1;" vertex="1" parent="1">
          <mxGeometry x="330" y="250" width="50" height="20" as="geometry" />
        </mxCell>
        <mxCell id="aN3tA-tQK1jdyyEr9fkh-19" value="提交" style="rhombus;whiteSpace=wrap;html=1;" vertex="1" parent="1">
          <mxGeometry x="320" y="300" width="70" height="30" as="geometry" />
        </mxCell>
        <mxCell id="aN3tA-tQK1jdyyEr9fkh-20" value="n" style="text;html=1;strokeColor=none;fillColor=none;align=center;verticalAlign=middle;whiteSpace=wrap;rounded=0;" vertex="1" parent="1">
          <mxGeometry x="280" y="295" width="60" height="30" as="geometry" />
        </mxCell>
        <mxCell id="aN3tA-tQK1jdyyEr9fkh-21" value="n" style="text;html=1;strokeColor=none;fillColor=none;align=center;verticalAlign=middle;whiteSpace=wrap;rounded=0;" vertex="1" parent="1">
          <mxGeometry x="330" y="330" width="60" height="30" as="geometry" />
        </mxCell>
        <mxCell id="aN3tA-tQK1jdyyEr9fkh-22" value="n" style="text;html=1;strokeColor=none;fillColor=none;align=center;verticalAlign=middle;whiteSpace=wrap;rounded=0;" vertex="1" parent="1">
          <mxGeometry x="190" y="295" width="60" height="30" as="geometry" />
        </mxCell>
        <mxCell id="aN3tA-tQK1jdyyEr9fkh-24" value="账号信息" style="rounded=0;whiteSpace=wrap;html=1;" vertex="1" parent="1">
          <mxGeometry x="330" y="360" width="50" height="20" as="geometry" />
        </mxCell>
        <mxCell id="aN3tA-tQK1jdyyEr9fkh-25" value="生词信息" style="rounded=0;whiteSpace=wrap;html=1;" vertex="1" parent="1">
          <mxGeometry x="250" y="305" width="50" height="20" as="geometry" />
        </mxCell>
        <mxCell id="aN3tA-tQK1jdyyEr9fkh-26" value="管理" style="rhombus;whiteSpace=wrap;html=1;" vertex="1" parent="1">
          <mxGeometry x="120" y="300" width="70" height="30" as="geometry" />
        </mxCell>
        <mxCell id="aN3tA-tQK1jdyyEr9fkh-27" value="" style="endArrow=none;html=1;rounded=0;exitX=1;exitY=0.5;exitDx=0;exitDy=0;entryX=0;entryY=0.5;entryDx=0;entryDy=0;" edge="1" parent="1" source="aN3tA-tQK1jdyyEr9fkh-26" target="aN3tA-tQK1jdyyEr9fkh-25">
          <mxGeometry width="50" height="50" relative="1" as="geometry">
            <mxPoint x="380" y="340" as="sourcePoint" />
            <mxPoint x="430" y="290" as="targetPoint" />
          </mxGeometry>
        </mxCell>
        <mxCell id="aN3tA-tQK1jdyyEr9fkh-28" value="" style="endArrow=none;html=1;rounded=0;exitX=0.5;exitY=1;exitDx=0;exitDy=0;entryX=0;entryY=0.5;entryDx=0;entryDy=0;" edge="1" parent="1" source="aN3tA-tQK1jdyyEr9fkh-26" target="aN3tA-tQK1jdyyEr9fkh-24">
          <mxGeometry width="50" height="50" relative="1" as="geometry">
            <mxPoint x="380" y="340" as="sourcePoint" />
            <mxPoint x="430" y="290" as="targetPoint" />
            <Array as="points">
              <mxPoint x="155" y="370" />
            </Array>
          </mxGeometry>
        </mxCell>
      </root>
    </mxGraphModel>
  </diagram>
</mxfile>
